Coordinates
version=1
nRows=11
nColumns=63
inDegrees=yes

Units are S.I. units (second, meters, Newtons, ...)
If the header above contains a line with 'inDegrees', this indicates whether rotational values are in degrees (yes) or radians (no).

endheader
time	pelvis_tilt	pelvis_list	pelvis_rotation	pelvis_tx	pelvis_ty	pelvis_tz	hip_flexion_r	hip_adduction_r	hip_rotation_r	knee_angle_r	knee_angle_r_beta	ankle_angle_r	subtalar_angle_r	mtp_angle_r	hip_flexion_l	hip_adduction_l	hip_rotation_l	knee_angle_l	knee_angle_l_beta	ankle_angle_l	subtalar_angle_l	mtp_angle_l	L5_S1_Flex_Ext	L5_S1_Lat_Bending	L5_S1_axial_rotation	L4_L5_Flex_Ext	L4_L5_Lat_Bending	L4_L5_axial_rotation	L3_L4_Flex_Ext	L3_L4_Lat_Bending	L3_L4_axial_rotation	L2_L3_Flex_Ext	L2_L3_Lat_Bending	L2_L3_axial_rotation	L1_L2_Flex_Ext	L1_L2_Lat_Bending	L1_L2_axial_rotation	L1_T12_Flex_Ext	L1_T12_Lat_Bending	L1_T12_axial_rotation	Abs_r3	Abs_r2	Abs_r1	Abs_t1	Abs_t2	neck_flexion	neck_bending	neck_rotation	arm_flex_r	arm_add_r	arm_rot_r	elbow_flex_r	pro_sup_r	wrist_flex_r	wrist_dev_r	arm_flex_l	arm_add_l	arm_rot_l	elbow_flex_l	pro_sup_l	wrist_flex_l	wrist_dev_l
0.000000	-1.888807	-5.140785	81.817515	0.105730	0.941619	0.284166	2.960050	-0.828539	-16.015609	10.139413	0.176966	16.200799	16.511434	0.000000	0.462595	1.791593	2.603613	4.533219	0.079120	7.470999	-17.807987	0.000000	0.134789	-0.044964	0.937264	0.250316	-0.059802	0.995843	0.221444	-0.109325	0.995843	0.154050	-0.109325	0.820106	0.125165	-0.091690	0.761527	0.077018	-0.069649	0.702948	0.962781	-0.508639	5.212780	0.000000	0.000000	14.042065	-0.493183	-12.565259	23.524931	-4.302265	77.044675	39.060828	24.842948	4.312040	24.329987	24.916247	-3.175899	81.432361	33.477843	56.411433	1.864220	1.092026
0.017544	-2.058778	-5.050365	81.676485	0.105612	0.942123	0.283667	2.764238	-1.078347	-15.929635	9.979169	0.174169	16.703915	16.853673	0.000000	0.705354	1.991509	2.050911	5.339340	0.093189	7.612140	-17.314084	0.000000	0.133678	-0.053146	0.962064	0.248253	-0.070684	1.022192	0.219619	-0.129219	1.022192	0.152780	-0.129219	0.841806	0.124133	-0.108375	0.781677	0.076383	-0.082323	0.721548	0.954846	-0.601198	5.350709	0.000000	0.000000	14.013267	-0.310180	-12.074210	24.422914	-4.286897	79.350216	38.688367	23.062241	4.116498	21.169770	24.497569	-3.485719	79.886193	34.214663	49.582825	1.987428	0.064730
0.035088	-2.217751	-4.979533	81.559774	0.105579	0.942552	0.283250	2.604819	-1.304177	-15.870751	9.855189	0.172005	17.088178	17.119323	0.000000	0.929722	2.170082	1.563980	6.055367	0.105686	7.642190	-16.952880	0.000000	0.133227	-0.063420	0.999761	0.247415	-0.084348	1.062246	0.218878	-0.154198	1.062246	0.152265	-0.154198	0.874791	0.123714	-0.129325	0.812306	0.076126	-0.098237	0.749821	0.951625	-0.717416	5.560370	0.000000	0.000000	13.981111	-0.139228	-11.782239	25.137626	-4.337143	81.007580	38.497501	21.561336	3.914242	18.667922	24.226454	-3.712928	78.835964	34.865156	43.453773	2.033613	-0.595084
0.052632	-2.366682	-4.926787	81.465368	0.105622	0.942909	0.282909	2.479119	-1.507763	-15.835583	9.763784	0.170410	17.366554	17.315940	0.000000	1.136515	2.329215	1.139126	6.685227	0.116679	7.579187	-16.710178	0.000000	0.133416	-0.075518	1.047857	0.247766	-0.100439	1.113348	0.219189	-0.183614	1.113348	0.152481	-0.183614	0.916875	0.123890	-0.153996	0.851384	0.076234	-0.116977	0.785893	0.952975	-0.854271	5.827868	0.000000	0.000000	13.949387	0.021349	-11.661708	25.691874	-4.442625	82.098809	38.468023	20.321947	3.713635	16.758872	24.085456	-3.867183	78.221335	35.434178	38.045085	2.015728	-0.928075
0.070175	-2.506530	-4.890626	81.391251	0.105734	0.943199	0.282636	2.384463	-1.690841	-15.820761	9.701266	0.169319	17.552012	17.451076	0.000000	1.326550	2.470810	0.772655	7.232849	0.126237	7.441168	-16.571785	0.000000	0.134225	-0.089173	1.103854	0.249269	-0.118600	1.172845	0.220518	-0.216815	1.172845	0.153405	-0.216815	0.965872	0.124641	-0.181842	0.896882	0.076696	-0.138129	0.827891	0.958753	-1.008743	6.139306	0.000000	0.000000	13.921888	0.173226	-11.684978	26.108466	-4.592963	82.705948	38.579726	19.325791	3.523039	15.377051	24.057126	-3.958138	77.981966	35.926588	33.377569	1.946724	-0.974905
0.087719	-2.638252	-4.869548	81.335410	0.105907	0.943422	0.282426	2.318179	-1.855144	-15.822911	9.663946	0.168668	17.657519	17.532286	0.000000	1.500644	2.596770	0.460875	7.702159	0.134428	7.246173	-16.523507	0.000000	0.135633	-0.104118	1.165253	0.251885	-0.138478	1.238082	0.222832	-0.253154	1.238082	0.155015	-0.253154	1.019597	0.125949	-0.212318	0.946768	0.077501	-0.161279	0.873940	0.968816	-1.177809	6.480789	0.000000	0.000000	13.902407	0.318078	-11.824411	26.410211	-4.777779	82.911041	38.812401	18.554585	3.350816	14.456890	24.124018	-3.995450	78.057516	36.347244	29.472034	1.839555	-0.776234
0.105263	-2.762806	-4.862051	81.295829	0.106133	0.943583	0.282272	2.277592	-2.002406	-15.838662	9.648134	0.168392	17.696045	17.567123	0.000000	1.659616	2.708997	0.200090	8.097086	0.141321	7.012238	-16.551149	0.000000	0.137622	-0.120087	1.229556	0.255578	-0.159716	1.306403	0.226099	-0.291979	1.306403	0.157288	-0.291979	1.075861	0.127796	-0.244881	0.999014	0.078637	-0.186015	0.922167	0.983020	-1.358448	6.838420	0.000000	0.000000	13.894734	0.457581	-12.052367	26.619917	-4.986694	82.796130	39.145843	17.990043	3.205327	13.932819	24.268683	-3.988774	78.387648	36.701003	26.349286	1.707170	-0.372721
0.122807	-2.881149	-4.866634	81.270494	0.106403	0.943684	0.282169	2.260029	-2.134364	-15.864641	9.650142	0.168427	17.680557	17.563142	0.000000	1.804282	2.809393	-0.013392	8.421558	0.146984	6.757403	-16.640517	0.000000	0.140170	-0.136811	1.294263	0.260310	-0.181959	1.375155	0.230286	-0.332643	1.375155	0.160201	-0.332643	1.132480	0.130162	-0.278986	1.051589	0.080093	-0.211921	0.970697	1.001222	-1.547638	7.198303	0.000000	0.000000	13.902662	0.593410	-12.341208	26.760392	-5.209330	82.443259	39.559844	17.613882	3.094935	13.739267	24.473676	-3.947768	78.912020	36.992724	24.030135	1.562524	0.194971
0.140351	-2.994239	-4.881793	81.257391	0.106710	0.943728	0.282110	2.262816	-2.252751	-15.897476	9.666282	0.168708	17.624024	17.527895	0.000000	1.935460	2.899860	-0.183264	8.679503	0.151486	6.499704	-16.777415	0.000000	0.143258	-0.154025	1.356877	0.266045	-0.204853	1.441682	0.235359	-0.374496	1.441682	0.163730	-0.374496	1.187267	0.133030	-0.314087	1.102463	0.081858	-0.238584	1.017658	1.023280	-1.742358	7.546543	0.000000	0.000000	13.929984	0.727240	-12.663294	26.854444	-5.435306	81.934472	40.034197	17.407818	3.028002	13.810666	24.721547	-3.882086	79.570294	37.227265	22.535389	1.418567	0.886182
0.157895	-3.103034	-4.906028	81.254505	0.107045	0.943718	0.282089	2.283278	-2.359301	-15.933794	9.692863	0.169172	17.539412	17.468938	0.000000	2.053966	2.982300	-0.313221	8.874848	0.154895	6.257181	-16.947651	0.000000	0.146866	-0.171460	1.414899	0.272745	-0.228041	1.503330	0.241286	-0.416887	1.503330	0.167853	-0.416887	1.238037	0.136380	-0.349641	1.149605	0.083919	-0.265591	1.061174	1.049050	-1.939586	7.869244	0.000000	0.000000	13.980491	0.860746	-12.990988	26.924883	-5.654246	81.351813	40.548693	17.353566	3.012890	14.081446	24.994851	-3.801384	80.302130	37.409483	21.885856	1.288253	1.660253
0.175439	-3.208490	-4.937837	81.259822	0.107401	0.943657	0.282100	2.318744	-2.455749	-15.970224	9.726198	0.169754	17.439691	17.393823	0.000000	2.160618	3.058616	-0.406956	9.011522	0.157281	6.047872	-17.137028	0.000000	0.150973	-0.188849	1.465830	0.280373	-0.251170	1.557445	0.248034	-0.459168	1.557445	0.172548	-0.459168	1.282601	0.140194	-0.385101	1.190987	0.086266	-0.292528	1.099373	1.078388	-2.136301	8.152508	0.000000	0.000000	14.057975	0.995604	-13.296650	26.994515	-5.855769	80.777325	41.083128	17.432842	3.057961	14.486038	25.276139	-3.715319	81.047188	37.544236	22.102343	1.184532	2.476523
